<?xml version="1.0" encoding="UTF-8"?>
<svg id="Layer_2" data-name="Layer 2" xmlns="http://www.w3.org/2000/svg" viewBox="0 0 506.79 452.12">
  <defs>
    <style>
      .cls-1 {
        fill: #f7ee52;
        stroke: #000;
        stroke-miterlimit: 10;
        stroke-width: 14px;
      }
    </style>
  </defs>
  <g id="Layer_1-2" data-name="Layer 1">
    <path class="cls-1" d="m493.76,379.1L291.48,28.75c-15.44-28.96-60.76-29.03-76.21,0L13,379.1c-17.34,27.87,5.24,67.14,38.11,66h404.55c32.82,1.1,55.52-38.1,38.11-66h0Z"/>
    <g>
      <path d="m253.38,378.63c-23.08-.59-23.07-34.42,0-35,23.08.59,23.07,34.42,0,35Z"/>
      <path d="m284.15,163.5l-20.76,145.32c-1.5,11.33-18.5,11.41-20,0l-20.76-145.32c-2.26-15.83,10.03-30,26.02-30h9.48c16,0,28.28,14.17,26.02,30h0Z"/>
    </g>
  </g>
</svg>